<mxfile host="app.diagrams.net" agent="Mozilla/5.0 (Windows NT 10.0; Win64; x64) AppleWebKit/537.36 (KHTML, like Gecko) Chrome/127.0.0.0 Safari/537.36 Edg/127.0.0.0" version="24.7.6">
  <diagram name="Page-1" id="VPbHjQ1BROzPNbz4NQ8p">
    <mxGraphModel dx="4136" dy="1355" grid="1" gridSize="10" guides="1" tooltips="1" connect="1" arrows="1" fold="1" page="1" pageScale="1" pageWidth="827" pageHeight="1169" math="0" shadow="0">
      <root>
        <mxCell id="0" />
        <mxCell id="1" parent="0" />
        <mxCell id="opNE-5nycYlDy_cOUBMx-29" value="UI" style="swimlane;whiteSpace=wrap;html=1;strokeColor=default;" vertex="1" parent="1">
          <mxGeometry x="-890" y="50" width="580" height="990" as="geometry" />
        </mxCell>
        <mxCell id="opNE-5nycYlDy_cOUBMx-30" value="" style="ellipse;fillColor=strokeColor;html=1;" vertex="1" parent="opNE-5nycYlDy_cOUBMx-29">
          <mxGeometry x="344" y="100" width="30" height="30" as="geometry" />
        </mxCell>
        <mxCell id="opNE-5nycYlDy_cOUBMx-31" value="" style="html=1;verticalAlign=bottom;labelBackgroundColor=none;endArrow=block;endFill=1;rounded=0;exitX=0.5;exitY=1;exitDx=0;exitDy=0;" edge="1" parent="opNE-5nycYlDy_cOUBMx-29" source="opNE-5nycYlDy_cOUBMx-30">
          <mxGeometry width="160" relative="1" as="geometry">
            <mxPoint x="344" y="270" as="sourcePoint" />
            <mxPoint x="359" y="200" as="targetPoint" />
          </mxGeometry>
        </mxCell>
        <mxCell id="opNE-5nycYlDy_cOUBMx-32" value="&lt;font style=&quot;font-size: 15px;&quot;&gt;Payer MOJ&lt;/font&gt;" style="html=1;align=center;verticalAlign=middle;rounded=1;absoluteArcSize=1;arcSize=10;dashed=0;whiteSpace=wrap;" vertex="1" parent="opNE-5nycYlDy_cOUBMx-29">
          <mxGeometry x="300" y="270" width="102.5" height="40" as="geometry" />
        </mxCell>
        <mxCell id="opNE-5nycYlDy_cOUBMx-33" value="&lt;font style=&quot;font-size: 15px;&quot;&gt;Sélectionner et / ou Identifier la MOJ à payer&lt;/font&gt;" style="html=1;align=center;verticalAlign=middle;rounded=1;absoluteArcSize=1;arcSize=10;dashed=0;whiteSpace=wrap;" vertex="1" parent="opNE-5nycYlDy_cOUBMx-29">
          <mxGeometry x="271.5" y="200" width="172.5" height="40" as="geometry" />
        </mxCell>
        <mxCell id="opNE-5nycYlDy_cOUBMx-36" value="&lt;font style=&quot;font-size: 15px;&quot;&gt;Choisir la mission à payer&lt;/font&gt;" style="html=1;align=center;verticalAlign=middle;rounded=1;absoluteArcSize=1;arcSize=10;dashed=0;whiteSpace=wrap;" vertex="1" parent="opNE-5nycYlDy_cOUBMx-29">
          <mxGeometry x="283" y="430" width="115" height="40" as="geometry" />
        </mxCell>
        <mxCell id="opNE-5nycYlDy_cOUBMx-66" value="&lt;font style=&quot;font-size: 13px;&quot;&gt;Bouton désactiver par défaut&lt;/font&gt;" style="shape=note2;boundedLbl=1;whiteSpace=wrap;html=1;size=12;verticalAlign=middle;align=center;fillColor=#FFF2D9;strokeColor=#d79b00;fillOpacity=50;" vertex="1" parent="opNE-5nycYlDy_cOUBMx-29">
          <mxGeometry x="63" y="272.5" width="120" height="35" as="geometry" />
        </mxCell>
        <mxCell id="opNE-5nycYlDy_cOUBMx-67" value="&lt;font style=&quot;font-size: 13px;&quot;&gt;Cette action active le bouton&amp;nbsp;&lt;b style=&quot;&quot;&gt;payer MOJ &lt;/b&gt;qui est par défaut désactivé&lt;/font&gt;" style="shape=note2;boundedLbl=1;whiteSpace=wrap;html=1;size=12;verticalAlign=middle;align=center;fillColor=#FFF2D9;strokeColor=#D79B00;fillOpacity=50;" vertex="1" parent="opNE-5nycYlDy_cOUBMx-29">
          <mxGeometry x="50" y="130" width="210" height="40" as="geometry" />
        </mxCell>
        <mxCell id="opNE-5nycYlDy_cOUBMx-68" value="&lt;span style=&quot;font-size: 15px;&quot;&gt;affiche toutes les missions effectuer par la MOJ&lt;/span&gt;" style="html=1;align=center;verticalAlign=middle;dashed=0;whiteSpace=wrap;fillColor=#F2F2F2;" vertex="1" parent="opNE-5nycYlDy_cOUBMx-29">
          <mxGeometry x="360" y="335" width="180" height="50" as="geometry" />
        </mxCell>
        <mxCell id="opNE-5nycYlDy_cOUBMx-62" value="" style="html=1;verticalAlign=bottom;labelBackgroundColor=none;endArrow=block;endFill=1;rounded=0;entryX=0.5;entryY=0;entryDx=0;entryDy=0;" edge="1" parent="opNE-5nycYlDy_cOUBMx-29" target="opNE-5nycYlDy_cOUBMx-32">
          <mxGeometry width="160" relative="1" as="geometry">
            <mxPoint x="351" y="240" as="sourcePoint" />
            <mxPoint x="187" y="290" as="targetPoint" />
          </mxGeometry>
        </mxCell>
        <mxCell id="opNE-5nycYlDy_cOUBMx-69" value="" style="html=1;verticalAlign=bottom;labelBackgroundColor=none;endArrow=block;endFill=1;rounded=0;exitX=0.643;exitY=1.009;exitDx=0;exitDy=0;exitPerimeter=0;entryX=0;entryY=0;entryDx=0;entryDy=0;fontColor=#990000;strokeColor=#8C8C8C;" edge="1" parent="opNE-5nycYlDy_cOUBMx-29" source="opNE-5nycYlDy_cOUBMx-67" target="opNE-5nycYlDy_cOUBMx-33">
          <mxGeometry width="160" relative="1" as="geometry">
            <mxPoint x="218.5" y="150" as="sourcePoint" />
            <mxPoint x="297.5" y="150" as="targetPoint" />
          </mxGeometry>
        </mxCell>
        <mxCell id="opNE-5nycYlDy_cOUBMx-71" value="" style="html=1;verticalAlign=bottom;labelBackgroundColor=none;endArrow=block;endFill=1;rounded=0;entryX=0;entryY=0.25;entryDx=0;entryDy=0;" edge="1" parent="opNE-5nycYlDy_cOUBMx-29">
          <mxGeometry width="160" relative="1" as="geometry">
            <mxPoint x="170" y="450" as="sourcePoint" />
            <mxPoint x="283" y="449.65999999999997" as="targetPoint" />
          </mxGeometry>
        </mxCell>
        <mxCell id="opNE-5nycYlDy_cOUBMx-76" value="&lt;font style=&quot;font-size: 13px;&quot;&gt;Cette action active le bouton&amp;nbsp;&lt;b&gt;Valider la paie&amp;nbsp;&lt;/b&gt;qui est par défaut désactivé&lt;/font&gt;" style="shape=note2;boundedLbl=1;whiteSpace=wrap;html=1;size=12;verticalAlign=middle;align=center;fillColor=#FFF2D9;strokeColor=#D79B00;fillOpacity=50;" vertex="1" parent="opNE-5nycYlDy_cOUBMx-29">
          <mxGeometry x="40" y="360" width="210" height="40" as="geometry" />
        </mxCell>
        <mxCell id="opNE-5nycYlDy_cOUBMx-77" value="" style="html=1;verticalAlign=bottom;labelBackgroundColor=none;endArrow=block;endFill=1;rounded=0;exitX=0.755;exitY=1.018;exitDx=0;exitDy=0;exitPerimeter=0;entryX=0;entryY=0;entryDx=0;entryDy=0;fontColor=#990000;strokeColor=#8C8C8C;" edge="1" parent="opNE-5nycYlDy_cOUBMx-29" source="opNE-5nycYlDy_cOUBMx-76">
          <mxGeometry width="160" relative="1" as="geometry">
            <mxPoint x="266" y="335" as="sourcePoint" />
            <mxPoint x="283" y="435" as="targetPoint" />
          </mxGeometry>
        </mxCell>
        <mxCell id="opNE-5nycYlDy_cOUBMx-78" value="" style="html=1;verticalAlign=bottom;labelBackgroundColor=none;endArrow=block;endFill=1;rounded=0;exitX=1.006;exitY=0.528;exitDx=0;exitDy=0;exitPerimeter=0;entryX=0;entryY=0.25;entryDx=0;entryDy=0;fontColor=#990000;strokeColor=#8C8C8C;" edge="1" parent="opNE-5nycYlDy_cOUBMx-29" source="opNE-5nycYlDy_cOUBMx-66">
          <mxGeometry width="160" relative="1" as="geometry">
            <mxPoint x="240" y="290" as="sourcePoint" />
            <mxPoint x="299.99999999999955" y="289.9999999999998" as="targetPoint" />
            <Array as="points">
              <mxPoint x="270" y="290" />
            </Array>
          </mxGeometry>
        </mxCell>
        <mxCell id="opNE-5nycYlDy_cOUBMx-81" value="&lt;font style=&quot;font-size: 15px;&quot;&gt;Valider la paie&lt;/font&gt;" style="html=1;align=center;verticalAlign=middle;rounded=1;absoluteArcSize=1;arcSize=10;dashed=0;whiteSpace=wrap;" vertex="1" parent="opNE-5nycYlDy_cOUBMx-29">
          <mxGeometry x="283" y="500" width="115" height="40" as="geometry" />
        </mxCell>
        <mxCell id="opNE-5nycYlDy_cOUBMx-82" value="" style="html=1;verticalAlign=bottom;labelBackgroundColor=none;endArrow=block;endFill=1;rounded=0;exitX=0.5;exitY=1;exitDx=0;exitDy=0;" edge="1" parent="opNE-5nycYlDy_cOUBMx-29" source="opNE-5nycYlDy_cOUBMx-36">
          <mxGeometry width="160" relative="1" as="geometry">
            <mxPoint x="211.5" y="550" as="sourcePoint" />
            <mxPoint x="340" y="500" as="targetPoint" />
          </mxGeometry>
        </mxCell>
        <mxCell id="opNE-5nycYlDy_cOUBMx-89" value="&lt;span style=&quot;font-size: 15px;&quot;&gt;affiche le changement de statut de la mission de &quot;&lt;/span&gt;&lt;b style=&quot;font-size: 15px;&quot;&gt;A payer&quot;&lt;/b&gt;&lt;span style=&quot;font-size: 15px;&quot;&gt;&amp;nbsp;à &quot;&lt;/span&gt;&lt;b style=&quot;font-size: 15px;&quot;&gt;paie en cour&quot;&lt;/b&gt;" style="html=1;align=center;verticalAlign=middle;dashed=0;whiteSpace=wrap;fillColor=#F2F2F2;" vertex="1" parent="opNE-5nycYlDy_cOUBMx-29">
          <mxGeometry x="344" y="600" width="180" height="50" as="geometry" />
        </mxCell>
        <mxCell id="opNE-5nycYlDy_cOUBMx-91" value="&lt;span style=&quot;font-size: 15px;&quot;&gt;affiche le changement du statut de la mission; de &quot;&lt;/span&gt;&lt;b style=&quot;font-size: 15px;&quot;&gt;A payer&quot;&lt;/b&gt;&lt;span style=&quot;font-size: 15px;&quot;&gt;&amp;nbsp;à &quot;&lt;/span&gt;&lt;b style=&quot;font-size: 15px;&quot;&gt;payé&quot;&lt;/b&gt;" style="html=1;align=center;verticalAlign=middle;dashed=0;whiteSpace=wrap;fillColor=#F2F2F2;" vertex="1" parent="opNE-5nycYlDy_cOUBMx-29">
          <mxGeometry x="344" y="690" width="180" height="50" as="geometry" />
        </mxCell>
        <mxCell id="opNE-5nycYlDy_cOUBMx-93" value="" style="ellipse;html=1;shape=endState;fillColor=strokeColor;" vertex="1" parent="opNE-5nycYlDy_cOUBMx-29">
          <mxGeometry x="246" y="610" width="30" height="30" as="geometry" />
        </mxCell>
        <mxCell id="opNE-5nycYlDy_cOUBMx-94" value="" style="ellipse;html=1;shape=endState;fillColor=strokeColor;" vertex="1" parent="opNE-5nycYlDy_cOUBMx-29">
          <mxGeometry x="246" y="694" width="30" height="30" as="geometry" />
        </mxCell>
        <mxCell id="opNE-5nycYlDy_cOUBMx-95" value="" style="html=1;verticalAlign=bottom;labelBackgroundColor=none;endArrow=block;endFill=1;rounded=0;entryX=1;entryY=0.5;entryDx=0;entryDy=0;" edge="1" parent="opNE-5nycYlDy_cOUBMx-29">
          <mxGeometry width="160" relative="1" as="geometry">
            <mxPoint x="344" y="625" as="sourcePoint" />
            <mxPoint x="276" y="625" as="targetPoint" />
          </mxGeometry>
        </mxCell>
        <mxCell id="opNE-5nycYlDy_cOUBMx-96" value="" style="html=1;verticalAlign=bottom;labelBackgroundColor=none;endArrow=block;endFill=1;rounded=0;entryX=1;entryY=0.5;entryDx=0;entryDy=0;" edge="1" parent="opNE-5nycYlDy_cOUBMx-29">
          <mxGeometry width="160" relative="1" as="geometry">
            <mxPoint x="344" y="710" as="sourcePoint" />
            <mxPoint x="276" y="710" as="targetPoint" />
          </mxGeometry>
        </mxCell>
        <mxCell id="opNE-5nycYlDy_cOUBMx-41" value="Control" style="swimlane;whiteSpace=wrap;html=1;" vertex="1" parent="1">
          <mxGeometry x="-310" y="50" width="360" height="990" as="geometry" />
        </mxCell>
        <mxCell id="opNE-5nycYlDy_cOUBMx-85" value="Confirmation ?" style="rhombus;fontSize=17;" vertex="1" parent="opNE-5nycYlDy_cOUBMx-41">
          <mxGeometry x="70" y="483" width="156" height="80" as="geometry" />
        </mxCell>
        <mxCell id="opNE-5nycYlDy_cOUBMx-44" value="System" style="swimlane;whiteSpace=wrap;html=1;" vertex="1" parent="1">
          <mxGeometry x="50" y="50" width="400" height="990" as="geometry" />
        </mxCell>
        <mxCell id="opNE-5nycYlDy_cOUBMx-45" value="&lt;span style=&quot;font-size: 15px;&quot;&gt;Récupère&amp;nbsp;&lt;/span&gt;&lt;span style=&quot;font-size: 15px;&quot;&gt;la liste des missions a payer pour la MOJ choisie&lt;/span&gt;" style="html=1;align=center;verticalAlign=middle;dashed=0;whiteSpace=wrap;fillColor=#FFFFFF;" vertex="1" parent="opNE-5nycYlDy_cOUBMx-44">
          <mxGeometry x="30" y="150" width="190" height="60" as="geometry" />
        </mxCell>
        <mxCell id="opNE-5nycYlDy_cOUBMx-70" value="" style="html=1;verticalAlign=bottom;labelBackgroundColor=none;endArrow=block;endFill=1;rounded=0;exitX=0.529;exitY=1.06;exitDx=0;exitDy=0;exitPerimeter=0;" edge="1" parent="opNE-5nycYlDy_cOUBMx-44" source="opNE-5nycYlDy_cOUBMx-45">
          <mxGeometry width="160" relative="1" as="geometry">
            <mxPoint x="40" y="279.66" as="sourcePoint" />
            <mxPoint x="-400" y="360" as="targetPoint" />
            <Array as="points">
              <mxPoint x="130" y="270" />
              <mxPoint x="-200" y="270" />
              <mxPoint x="-200" y="360" />
            </Array>
          </mxGeometry>
        </mxCell>
        <mxCell id="opNE-5nycYlDy_cOUBMx-83" value="Vérifie si&#xa;plusieurs MOJ ont&#xa;été affectées&#xa; à cette mission" style="rhombus;fontSize=14;" vertex="1" parent="opNE-5nycYlDy_cOUBMx-44">
          <mxGeometry x="57" y="455" width="173" height="125" as="geometry" />
        </mxCell>
        <mxCell id="opNE-5nycYlDy_cOUBMx-87" value="" style="html=1;verticalAlign=bottom;labelBackgroundColor=none;endArrow=block;endFill=1;rounded=0;entryX=0;entryY=0.5;entryDx=0;entryDy=0;" edge="1" parent="opNE-5nycYlDy_cOUBMx-44">
          <mxGeometry width="160" relative="1" as="geometry">
            <mxPoint x="-134" y="523" as="sourcePoint" />
            <mxPoint x="58" y="523" as="targetPoint" />
          </mxGeometry>
        </mxCell>
        <mxCell id="opNE-5nycYlDy_cOUBMx-43" value="Si OUI" style="text;html=1;align=center;verticalAlign=middle;whiteSpace=wrap;rounded=0;" vertex="1" parent="opNE-5nycYlDy_cOUBMx-44">
          <mxGeometry x="92" y="580" width="60" height="30" as="geometry" />
        </mxCell>
        <mxCell id="opNE-5nycYlDy_cOUBMx-92" value="Si NON" style="text;html=1;align=center;verticalAlign=middle;whiteSpace=wrap;rounded=0;" vertex="1" parent="opNE-5nycYlDy_cOUBMx-44">
          <mxGeometry x="222" y="520" width="60" height="30" as="geometry" />
        </mxCell>
        <mxCell id="opNE-5nycYlDy_cOUBMx-63" value="" style="html=1;verticalAlign=bottom;labelBackgroundColor=none;endArrow=block;endFill=1;rounded=0;entryX=0;entryY=0.5;entryDx=0;entryDy=0;exitX=1;exitY=0.5;exitDx=0;exitDy=0;" edge="1" parent="1" source="opNE-5nycYlDy_cOUBMx-32">
          <mxGeometry width="160" relative="1" as="geometry">
            <mxPoint x="-540" y="340" as="sourcePoint" />
            <mxPoint x="80" y="230" as="targetPoint" />
            <Array as="points">
              <mxPoint x="-400" y="340" />
              <mxPoint x="-400" y="230" />
            </Array>
          </mxGeometry>
        </mxCell>
        <mxCell id="opNE-5nycYlDy_cOUBMx-86" value="" style="html=1;verticalAlign=bottom;labelBackgroundColor=none;endArrow=block;endFill=1;rounded=0;entryX=0;entryY=0.5;entryDx=0;entryDy=0;exitX=1;exitY=0.5;exitDx=0;exitDy=0;" edge="1" parent="1" source="opNE-5nycYlDy_cOUBMx-81" target="opNE-5nycYlDy_cOUBMx-85">
          <mxGeometry width="160" relative="1" as="geometry">
            <mxPoint x="-591" y="571.66" as="sourcePoint" />
            <mxPoint x="-531" y="571.66" as="targetPoint" />
          </mxGeometry>
        </mxCell>
        <mxCell id="opNE-5nycYlDy_cOUBMx-37" value="&lt;font style=&quot;font-size: 15px;&quot;&gt;MOJ Identifiée&lt;/font&gt;" style="html=1;align=center;verticalAlign=middle;rounded=1;absoluteArcSize=1;arcSize=10;dashed=0;whiteSpace=wrap;" vertex="1" parent="1">
          <mxGeometry x="-490" y="1571.99" width="115" height="40" as="geometry" />
        </mxCell>
        <mxCell id="opNE-5nycYlDy_cOUBMx-39" value="" style="html=1;verticalAlign=bottom;labelBackgroundColor=none;endArrow=block;endFill=1;rounded=0;exitX=0;exitY=0;exitDx=53.5;exitDy=0;exitPerimeter=0;entryX=0.411;entryY=1.028;entryDx=0;entryDy=0;entryPerimeter=0;" edge="1" parent="1" target="opNE-5nycYlDy_cOUBMx-37">
          <mxGeometry width="160" relative="1" as="geometry">
            <mxPoint x="-476.50000000000045" y="1657.9899999999998" as="sourcePoint" />
            <mxPoint x="-380" y="1687.99" as="targetPoint" />
          </mxGeometry>
        </mxCell>
        <mxCell id="opNE-5nycYlDy_cOUBMx-40" value="" style="html=1;verticalAlign=bottom;labelBackgroundColor=none;endArrow=block;endFill=1;rounded=0;entryX=-0.109;entryY=0.435;entryDx=0;entryDy=0;entryPerimeter=0;" edge="1" parent="1" target="opNE-5nycYlDy_cOUBMx-51">
          <mxGeometry width="160" relative="1" as="geometry">
            <mxPoint x="-374" y="1591.99" as="sourcePoint" />
            <mxPoint x="-170" y="1595.49" as="targetPoint" />
            <Array as="points">
              <mxPoint x="-240" y="1591.99" />
            </Array>
          </mxGeometry>
        </mxCell>
        <mxCell id="opNE-5nycYlDy_cOUBMx-42" value="le system vérifie si&#xa;plusieurs MOJ ont été affectées&#xa; a cette mission" style="rhombus;" vertex="1" parent="1">
          <mxGeometry y="1607.99" width="190" height="135" as="geometry" />
        </mxCell>
        <mxCell id="opNE-5nycYlDy_cOUBMx-46" value="&lt;span style=&quot;font-size: 15px;&quot;&gt;&lt;font color=&quot;#00529b&quot;&gt;affiche message de succès&lt;/font&gt;&lt;/span&gt;" style="html=1;align=center;verticalAlign=middle;dashed=0;whiteSpace=wrap;fillColor=#cce5ff;strokeColor=#36393d;" vertex="1" parent="1">
          <mxGeometry x="250" y="1470" width="160" height="40" as="geometry" />
        </mxCell>
        <mxCell id="opNE-5nycYlDy_cOUBMx-47" value="&lt;font style=&quot;font-size: 15px;&quot;&gt;affiche le changement de statut de la mission; de &lt;b&gt;A payer&lt;/b&gt; à &lt;b&gt;payé&lt;/b&gt;&lt;/font&gt;" style="html=1;align=center;verticalAlign=middle;dashed=0;whiteSpace=wrap;fillColor=#FFFFFF;" vertex="1" parent="1">
          <mxGeometry x="300" y="1527.99" width="160" height="60" as="geometry" />
        </mxCell>
        <mxCell id="opNE-5nycYlDy_cOUBMx-48" value="&lt;font style=&quot;font-size: 15px;&quot;&gt;affiche le changement de statut de la mission de &lt;b&gt;A payer&lt;/b&gt; à &lt;b&gt;paie en cour&lt;/b&gt;&lt;/font&gt;" style="html=1;align=center;verticalAlign=middle;dashed=0;whiteSpace=wrap;fillColor=#FFFFFF;" vertex="1" parent="1">
          <mxGeometry x="300" y="1627.99" width="160" height="70" as="geometry" />
        </mxCell>
        <mxCell id="opNE-5nycYlDy_cOUBMx-50" value="" style="html=1;verticalAlign=bottom;labelBackgroundColor=none;endArrow=block;endFill=1;rounded=0;" edge="1" parent="1">
          <mxGeometry width="160" relative="1" as="geometry">
            <mxPoint x="-438" y="1592.99" as="sourcePoint" />
            <mxPoint x="-388" y="1592.99" as="targetPoint" />
          </mxGeometry>
        </mxCell>
        <mxCell id="opNE-5nycYlDy_cOUBMx-51" value="" style="html=1;points=[];perimeter=orthogonalPerimeter;fillColor=strokeColor;" vertex="1" parent="1">
          <mxGeometry x="-70" y="1517.99" width="5" height="170" as="geometry" />
        </mxCell>
        <mxCell id="opNE-5nycYlDy_cOUBMx-52" value="" style="html=1;verticalAlign=bottom;labelBackgroundColor=none;endArrow=block;endFill=1;rounded=0;entryX=0;entryY=0.5;entryDx=0;entryDy=0;" edge="1" parent="1" target="opNE-5nycYlDy_cOUBMx-46">
          <mxGeometry width="160" relative="1" as="geometry">
            <mxPoint x="-66" y="1558.99" as="sourcePoint" />
            <mxPoint x="327" y="1526" as="targetPoint" />
            <Array as="points">
              <mxPoint y="1558.99" />
              <mxPoint y="1489.99" />
              <mxPoint x="110" y="1489.99" />
            </Array>
          </mxGeometry>
        </mxCell>
        <mxCell id="opNE-5nycYlDy_cOUBMx-53" value="" style="html=1;verticalAlign=bottom;labelBackgroundColor=none;endArrow=block;endFill=1;rounded=0;entryX=0;entryY=0.5;entryDx=0;entryDy=0;exitX=0.5;exitY=0;exitDx=0;exitDy=0;" edge="1" parent="1" source="opNE-5nycYlDy_cOUBMx-42" target="opNE-5nycYlDy_cOUBMx-47">
          <mxGeometry width="160" relative="1" as="geometry">
            <mxPoint x="296.1199999999999" y="1529.544" as="sourcePoint" />
            <mxPoint x="460" y="1531.49" as="targetPoint" />
            <Array as="points">
              <mxPoint x="95" y="1557.99" />
              <mxPoint x="260" y="1557.99" />
            </Array>
          </mxGeometry>
        </mxCell>
        <mxCell id="opNE-5nycYlDy_cOUBMx-54" value="" style="html=1;verticalAlign=bottom;labelBackgroundColor=none;endArrow=block;endFill=1;rounded=0;entryX=0;entryY=0.5;entryDx=0;entryDy=0;" edge="1" parent="1" target="opNE-5nycYlDy_cOUBMx-42">
          <mxGeometry width="160" relative="1" as="geometry">
            <mxPoint x="-64" y="1675.99" as="sourcePoint" />
            <mxPoint y="1647.99" as="targetPoint" />
          </mxGeometry>
        </mxCell>
        <mxCell id="opNE-5nycYlDy_cOUBMx-55" value="" style="html=1;verticalAlign=bottom;labelBackgroundColor=none;endArrow=block;endFill=1;rounded=0;exitX=1;exitY=0.5;exitDx=0;exitDy=0;entryX=-0.003;entryY=0.622;entryDx=0;entryDy=0;entryPerimeter=0;" edge="1" parent="1" source="opNE-5nycYlDy_cOUBMx-42" target="opNE-5nycYlDy_cOUBMx-48">
          <mxGeometry width="160" relative="1" as="geometry">
            <mxPoint x="200" y="1717.99" as="sourcePoint" />
            <mxPoint x="360" y="1717.99" as="targetPoint" />
          </mxGeometry>
        </mxCell>
        <mxCell id="opNE-5nycYlDy_cOUBMx-56" value="Si NON" style="text;html=1;align=center;verticalAlign=middle;whiteSpace=wrap;rounded=0;" vertex="1" parent="1">
          <mxGeometry x="178" y="1652.99" width="60" height="30" as="geometry" />
        </mxCell>
        <mxCell id="opNE-5nycYlDy_cOUBMx-88" value="" style="html=1;verticalAlign=bottom;labelBackgroundColor=none;endArrow=block;endFill=1;rounded=0;entryX=1.008;entryY=0.615;entryDx=0;entryDy=0;exitX=0.5;exitY=1;exitDx=0;exitDy=0;entryPerimeter=0;" edge="1" parent="1" source="opNE-5nycYlDy_cOUBMx-83" target="opNE-5nycYlDy_cOUBMx-89">
          <mxGeometry width="160" relative="1" as="geometry">
            <mxPoint x="-66" y="680" as="sourcePoint" />
            <mxPoint x="126" y="680" as="targetPoint" />
            <Array as="points">
              <mxPoint x="194" y="680" />
            </Array>
          </mxGeometry>
        </mxCell>
        <mxCell id="opNE-5nycYlDy_cOUBMx-90" value="" style="html=1;verticalAlign=bottom;labelBackgroundColor=none;endArrow=block;endFill=1;rounded=0;exitX=1;exitY=0.5;exitDx=0;exitDy=0;entryX=0.978;entryY=0.4;entryDx=0;entryDy=0;entryPerimeter=0;" edge="1" parent="1" source="opNE-5nycYlDy_cOUBMx-83" target="opNE-5nycYlDy_cOUBMx-91">
          <mxGeometry width="160" relative="1" as="geometry">
            <mxPoint x="280" y="700" as="sourcePoint" />
            <mxPoint x="-360" y="760" as="targetPoint" />
            <Array as="points">
              <mxPoint x="279" y="760" />
            </Array>
          </mxGeometry>
        </mxCell>
      </root>
    </mxGraphModel>
  </diagram>
</mxfile>
